<svg width="135" height="35" viewBox="0 0 135 35" fill="none" xmlns="http://www.w3.org/2000/svg">
<rect width="135" height="35" rx="17.5" fill="#1B5BFF"/>
<path d="M12 29.0645H34.35V6.71448H12V29.0645Z" fill="black"/>
<path d="M47.194 11.364V24H44.116V11.364H47.194ZM55.5446 13.848C56.7206 13.848 57.6566 14.232 58.3526 15C59.0606 15.756 59.4146 16.8 59.4146 18.132V24H56.3546V18.546C56.3546 17.874 56.1806 17.352 55.8326 16.98C55.4846 16.608 55.0166 16.422 54.4286 16.422C53.8406 16.422 53.3726 16.608 53.0246 16.98C52.6766 17.352 52.5026 17.874 52.5026 18.546V24H49.4246V13.956H52.5026V15.288C52.8146 14.844 53.2346 14.496 53.7626 14.244C54.2906 13.98 54.8846 13.848 55.5446 13.848ZM65.6395 24.144C64.7635 24.144 63.9835 23.994 63.2995 23.694C62.6155 23.394 62.0755 22.986 61.6795 22.47C61.2835 21.942 61.0615 21.354 61.0135 20.706H64.0555C64.0915 21.054 64.2535 21.336 64.5415 21.552C64.8295 21.768 65.1835 21.876 65.6035 21.876C65.9875 21.876 66.2815 21.804 66.4855 21.66C66.7015 21.504 66.8095 21.306 66.8095 21.066C66.8095 20.778 66.6595 20.568 66.3595 20.436C66.0595 20.292 65.5735 20.136 64.9015 19.968C64.1815 19.8 63.5815 19.626 63.1015 19.446C62.6215 19.254 62.2075 18.96 61.8595 18.564C61.5115 18.156 61.3375 17.61 61.3375 16.926C61.3375 16.35 61.4935 15.828 61.8055 15.36C62.1295 14.88 62.5975 14.502 63.2095 14.226C63.8335 13.95 64.5715 13.812 65.4235 13.812C66.6835 13.812 67.6735 14.124 68.3935 14.748C69.1255 15.372 69.5455 16.2 69.6535 17.232H66.8095C66.7615 16.884 66.6055 16.608 66.3415 16.404C66.0895 16.2 65.7535 16.098 65.3335 16.098C64.9735 16.098 64.6975 16.17 64.5055 16.314C64.3135 16.446 64.2175 16.632 64.2175 16.872C64.2175 17.16 64.3675 17.376 64.6675 17.52C64.9795 17.664 65.4595 17.808 66.1075 17.952C66.8515 18.144 67.4575 18.336 67.9255 18.528C68.3935 18.708 68.8015 19.008 69.1495 19.428C69.5095 19.836 69.6955 20.388 69.7075 21.084C69.7075 21.672 69.5395 22.2 69.2035 22.668C68.8795 23.124 68.4055 23.484 67.7815 23.748C67.1695 24.012 66.4555 24.144 65.6395 24.144ZM73.1386 12.912C72.5986 12.912 72.1546 12.756 71.8066 12.444C71.4706 12.12 71.3026 11.724 71.3026 11.256C71.3026 10.776 71.4706 10.38 71.8066 10.068C72.1546 9.744 72.5986 9.582 73.1386 9.582C73.6666 9.582 74.0986 9.744 74.4346 10.068C74.7826 10.38 74.9566 10.776 74.9566 11.256C74.9566 11.724 74.7826 12.12 74.4346 12.444C74.0986 12.756 73.6666 12.912 73.1386 12.912ZM74.6686 13.956V24H71.5906V13.956H74.6686ZM80.7152 13.812C81.4232 13.812 82.0412 13.956 82.5692 14.244C83.1092 14.532 83.5232 14.91 83.8112 15.378V13.956H86.8892V23.982C86.8892 24.906 86.7032 25.74 86.3312 26.484C85.9712 27.24 85.4132 27.84 84.6572 28.284C83.9132 28.728 82.9832 28.95 81.8672 28.95C80.3792 28.95 79.1732 28.596 78.2492 27.888C77.3252 27.192 76.7972 26.244 76.6652 25.044H79.7072C79.8032 25.428 80.0312 25.728 80.3912 25.944C80.7512 26.172 81.1952 26.286 81.7232 26.286C82.3592 26.286 82.8632 26.1 83.2352 25.728C83.6192 25.368 83.8112 24.786 83.8112 23.982V22.56C83.5112 23.028 83.0972 23.412 82.5692 23.712C82.0412 24 81.4232 24.144 80.7152 24.144C79.8872 24.144 79.1372 23.934 78.4652 23.514C77.7932 23.082 77.2592 22.476 76.8632 21.696C76.4792 20.904 76.2872 19.992 76.2872 18.96C76.2872 17.928 76.4792 17.022 76.8632 16.242C77.2592 15.462 77.7932 14.862 78.4652 14.442C79.1372 14.022 79.8872 13.812 80.7152 13.812ZM83.8112 18.978C83.8112 18.21 83.5952 17.604 83.1632 17.16C82.7432 16.716 82.2272 16.494 81.6152 16.494C81.0032 16.494 80.4812 16.716 80.0492 17.16C79.6292 17.592 79.4192 18.192 79.4192 18.96C79.4192 19.728 79.6292 20.34 80.0492 20.796C80.4812 21.24 81.0032 21.462 81.6152 21.462C82.2272 21.462 82.7432 21.24 83.1632 20.796C83.5952 20.352 83.8112 19.746 83.8112 18.978ZM95.29 13.848C96.442 13.848 97.366 14.232 98.062 15C98.758 15.756 99.106 16.8 99.106 18.132V24H96.046V18.546C96.046 17.874 95.872 17.352 95.524 16.98C95.176 16.608 94.708 16.422 94.12 16.422C93.532 16.422 93.064 16.608 92.716 16.98C92.368 17.352 92.194 17.874 92.194 18.546V24H89.116V10.68H92.194V15.306C92.506 14.862 92.932 14.508 93.472 14.244C94.012 13.98 94.618 13.848 95.29 13.848ZM106.843 21.39V24H105.277C104.161 24 103.291 23.73 102.667 23.19C102.043 22.638 101.731 21.744 101.731 20.508V16.512H100.507V13.956H101.731V11.508H104.809V13.956H106.825V16.512H104.809V20.544C104.809 20.844 104.881 21.06 105.025 21.192C105.169 21.324 105.409 21.39 105.745 21.39H106.843ZM112.643 24.144C111.767 24.144 110.987 23.994 110.303 23.694C109.619 23.394 109.079 22.986 108.683 22.47C108.287 21.942 108.065 21.354 108.017 20.706H111.059C111.095 21.054 111.257 21.336 111.545 21.552C111.833 21.768 112.187 21.876 112.607 21.876C112.991 21.876 113.285 21.804 113.489 21.66C113.705 21.504 113.813 21.306 113.813 21.066C113.813 20.778 113.663 20.568 113.363 20.436C113.063 20.292 112.577 20.136 111.905 19.968C111.185 19.8 110.585 19.626 110.105 19.446C109.625 19.254 109.211 18.96 108.863 18.564C108.515 18.156 108.341 17.61 108.341 16.926C108.341 16.35 108.497 15.828 108.809 15.36C109.133 14.88 109.601 14.502 110.213 14.226C110.837 13.95 111.575 13.812 112.427 13.812C113.687 13.812 114.677 14.124 115.397 14.748C116.129 15.372 116.549 16.2 116.657 17.232H113.813C113.765 16.884 113.609 16.608 113.345 16.404C113.093 16.2 112.757 16.098 112.337 16.098C111.977 16.098 111.701 16.17 111.509 16.314C111.317 16.446 111.221 16.632 111.221 16.872C111.221 17.16 111.371 17.376 111.671 17.52C111.983 17.664 112.463 17.808 113.111 17.952C113.855 18.144 114.461 18.336 114.929 18.528C115.397 18.708 115.805 19.008 116.153 19.428C116.513 19.836 116.699 20.388 116.711 21.084C116.711 21.672 116.543 22.2 116.207 22.668C115.883 23.124 115.409 23.484 114.785 23.748C114.173 24.012 113.459 24.144 112.643 24.144ZM120.035 24.144C119.495 24.144 119.051 23.988 118.703 23.676C118.367 23.352 118.199 22.956 118.199 22.488C118.199 22.008 118.367 21.606 118.703 21.282C119.051 20.958 119.495 20.796 120.035 20.796C120.563 20.796 120.995 20.958 121.331 21.282C121.679 21.606 121.853 22.008 121.853 22.488C121.853 22.956 121.679 23.352 121.331 23.676C120.995 23.988 120.563 24.144 120.035 24.144Z" fill="#FDFDFD"/>
</svg>
