<svg width="20" height="20" viewBox="0 0 20 20" fill="none" xmlns="http://www.w3.org/2000/svg">
<path d="M8.30131 4.4397H8.3013V4.44199V6.02533C8.3013 6.84979 8.08479 7.39723 7.7415 7.74052C7.39821 8.08382 6.85077 8.30033 6.0263 8.30033H4.44297C3.6185 8.30033 3.07107 8.08382 2.72777 7.74052C2.38448 7.39723 2.16797 6.84979 2.16797 6.02533V4.44199C2.16797 3.61753 2.38446 3.07038 2.72842 2.72719C3.07256 2.38382 3.62208 2.16699 4.4513 2.16699H6.03464C6.85928 2.16699 7.40634 2.38358 7.7484 2.7264C8.09025 3.06902 8.30509 3.61566 8.30131 4.4397Z" fill="currentColor" stroke="currentColor"/>
<path d="M13.9742 2.16699H15.5576C16.382 2.16699 16.9295 2.3835 17.2727 2.7268C17.616 3.07009 17.8326 3.61752 17.8326 4.44199V6.02533C17.8326 6.84979 17.616 7.39723 17.2727 7.74052C16.9295 8.08382 16.382 8.30033 15.5576 8.30033H13.9742C13.1498 8.30033 12.6023 8.08382 12.259 7.74052C11.9157 7.39723 11.6992 6.84979 11.6992 6.02533V4.44199C11.6992 3.61752 11.9157 3.07009 12.259 2.7268C12.6023 2.3835 13.1498 2.16699 13.9742 2.16699Z" fill="currentColor" stroke="currentColor"/>
<path d="M13.9742 11.6914H15.5576C16.382 11.6914 16.9295 11.9079 17.2727 12.2512C17.616 12.5945 17.8326 13.1419 17.8326 13.9664V15.5497C17.8326 16.3742 17.616 16.9216 17.2727 17.2649C16.9295 17.6082 16.382 17.8247 15.5576 17.8247H13.9742C13.1498 17.8247 12.6023 17.6082 12.259 17.2649C11.9157 16.9216 11.6992 16.3742 11.6992 15.5497V13.9664C11.6992 13.1419 11.9157 12.5945 12.259 12.2512C12.6023 11.9079 13.1498 11.6914 13.9742 11.6914Z" fill="currentColor" stroke="currentColor"/>
<path d="M8.30131 13.9725H8.3013V13.9747V15.5581C8.3013 16.3825 8.08479 16.93 7.7415 17.2733C7.39821 17.6166 6.85077 17.8331 6.0263 17.8331H4.44297C3.61851 17.8331 3.07135 17.6166 2.72817 17.2726C2.38479 16.9285 2.16797 16.379 2.16797 15.5497V13.9664C2.16797 13.1419 2.38446 12.5948 2.72842 12.2516C3.07256 11.9082 3.62208 11.6914 4.4513 11.6914H6.03464C6.85928 11.6914 7.40605 11.908 7.748 12.2515C8.08993 12.5949 8.30509 13.1437 8.30131 13.9725Z" fill="currentColor" stroke="currentColor"/>
</svg>
