<svg width="20" height="20" viewBox="0 0 20 20" fill="none" xmlns="http://www.w3.org/2000/svg">
<path d="M17.5 18.4584H2.5C2.46985 18.4584 2.43857 18.4461 2.41293 18.4204C2.38728 18.3948 2.375 18.3635 2.375 18.3334C2.375 18.3032 2.38728 18.2719 2.41293 18.2463C2.43857 18.2207 2.46985 18.2084 2.5 18.2084H17.5C17.5301 18.2084 17.5614 18.2207 17.5871 18.2463C17.6127 18.2719 17.625 18.3032 17.625 18.3334C17.625 18.3635 17.6127 18.3948 17.5871 18.4204C17.5614 18.4461 17.5301 18.4584 17.5 18.4584Z" fill="currentColor" stroke="currentColor"/>
<path d="M3.33333 7.48328H4.66667C4.85213 7.48328 5 7.62934 5 7.81661V14.9999C5 15.1821 4.84886 15.3333 4.66667 15.3333H3.33333C3.15114 15.3333 3 15.1821 3 14.9999V7.81661C3 7.63442 3.15114 7.48328 3.33333 7.48328Z" fill="currentColor" stroke="currentColor"/>
<path d="M9.33333 4.82495H10.6667C10.8489 4.82495 11 4.97609 11 5.15828V15C11 15.1821 10.8489 15.3333 10.6667 15.3333H9.33333C9.15114 15.3333 9 15.1821 9 15V5.15828C9 4.97609 9.15114 4.82495 9.33333 4.82495Z" fill="currentColor" stroke="currentColor"/>
<path d="M16.6667 1.66663H15.3333C14.875 1.66663 14.5 2.04163 14.5 2.49996V15C14.5 15.4583 14.875 15.8333 15.3333 15.8333H16.6667C17.125 15.8333 17.5 15.4583 17.5 15V2.49996C17.5 2.04163 17.125 1.66663 16.6667 1.66663Z" fill="currentColor"/>
</svg>
