<svg width="20" height="20" viewBox="0 0 20 20" fill="none" xmlns="http://www.w3.org/2000/svg">
<path d="M11.1082 11.4583H12.9165C12.9864 11.4583 13.0415 11.5137 13.0415 11.5833V14.8499C13.0415 15.8439 12.6984 16.5774 12.1795 17.0646C11.6556 17.5564 10.9136 17.8333 10.0582 17.8333H5.14984C4.29443 17.8333 3.55237 17.5564 3.02853 17.0646C2.50966 16.5774 2.1665 15.8439 2.1665 14.8499V9.31659C2.1665 8.32265 2.50966 7.58908 3.02853 7.10194C3.55237 6.61013 4.29443 6.33325 5.14984 6.33325H7.7915C7.86103 6.33325 7.9165 6.38837 7.9165 6.45825V8.26659C7.9165 10.0354 9.3497 11.4583 11.1082 11.4583Z" fill="currentColor" stroke="currentColor"/>
<path d="M13.2085 2.16675H14.8501C15.7055 2.16675 16.4476 2.44363 16.9714 2.93544C17.4903 3.42258 17.8335 4.15614 17.8335 5.15008V6.79175V9.05008V10.6917C17.8335 11.6596 17.5068 12.3774 17.0106 12.8607C16.6197 13.2415 16.101 13.4984 15.5001 13.605V12.3834V10.1251V8.48341C15.5001 7.24402 15.0641 6.23592 14.3226 5.53972C13.586 4.8482 12.5864 4.50008 11.5168 4.50008H9.87513H8.9668H7.01849C7.13723 3.81164 7.44393 3.2818 7.85923 2.90457C8.37902 2.43242 9.10539 2.16675 9.9418 2.16675H12.3001H13.2085Z" fill="currentColor" stroke="currentColor"/>
<path d="M11.0152 9.58342L11.0152 9.58337H11.0082C10.3182 9.58337 9.7832 9.04139 9.7832 8.4167V6.46811C10.6548 7.35364 12.0086 8.71482 12.8845 9.59169C12.2379 9.59159 11.5351 9.59074 11.0152 9.58342Z" fill="currentColor" stroke="currentColor"/>
</svg>
