<svg width="20" height="20" viewBox="0 0 20 20" fill="none" xmlns="http://www.w3.org/2000/svg">
<path d="M17.8248 6.50692V6.50829V13.4916C17.8248 14.9089 17.4043 15.98 16.688 16.6964C15.9716 17.4128 14.9004 17.8333 13.4832 17.8333H6.50817C5.09095 17.8333 4.01992 17.4128 3.30361 16.6956C2.58723 15.9783 2.1665 14.9051 2.1665 13.4833V6.50829C2.1665 5.09106 2.58702 4.01989 3.30339 3.30351C4.01977 2.58714 5.09094 2.16663 6.50817 2.16663H13.4915C14.9088 2.16663 15.9798 2.58718 16.695 3.30329C17.4101 4.0193 17.8287 5.09001 17.8248 6.50692ZM6.87484 13.625H13.1248C13.7426 13.625 14.2498 13.1178 14.2498 12.5C14.2498 11.8822 13.7426 11.375 13.1248 11.375H6.87484C6.25703 11.375 5.74984 11.8821 5.74984 12.5C5.74984 13.1178 6.25703 13.625 6.87484 13.625ZM6.87484 8.62496H13.1248C13.7426 8.62496 14.2498 8.11777 14.2498 7.49996C14.2498 6.88215 13.7426 6.37496 13.1248 6.37496H6.87484C6.25703 6.37496 5.74984 6.88215 5.74984 7.49996C5.74984 8.11777 6.25703 8.62496 6.87484 8.62496Z" fill="currentColor" stroke="currentColor"/>
</svg>
