<svg width="16" height="16" viewBox="0 0 16 16" fill="none" xmlns="http://www.w3.org/2000/svg">
<path d="M7.98014 1.33301C4.30014 1.33301 1.31348 4.31967 1.31348 7.99967C1.31348 11.6797 4.30014 14.6663 7.98014 14.6663C11.6601 14.6663 14.6468 11.6797 14.6468 7.99967C14.6468 4.31967 11.6668 1.33301 7.98014 1.33301ZM9.98014 9.48634L8.04681 10.5997C7.80681 10.7397 7.54014 10.8063 7.28014 10.8063C7.01348 10.8063 6.75348 10.7397 6.51348 10.5997C6.03348 10.3197 5.74681 9.82634 5.74681 9.26634V7.03301C5.74681 6.47967 6.03348 5.97967 6.51348 5.69967C6.99348 5.41967 7.56681 5.41967 8.05348 5.69967L9.98681 6.81301C10.4668 7.09301 10.7535 7.58634 10.7535 8.14634C10.7535 8.70634 10.4668 9.20634 9.98014 9.48634Z" fill="currentColor"/>
</svg>
