<svg width="20" height="20" viewBox="0 0 20 20" fill="none" xmlns="http://www.w3.org/2000/svg">
<path d="M6.54102 5.62533C6.54102 3.71813 8.09216 2.16699 9.99935 2.16699C11.9062 2.16699 13.4572 3.71761 13.4577 5.62436C13.4499 7.49559 11.9911 9.00554 10.1319 9.07533H10.1319H10.1319H10.1319H10.1318H10.1318H10.1318H10.1318H10.1317H10.1317H10.1317H10.1317H10.1316H10.1316H10.1316H10.1316H10.1315H10.1315H10.1315H10.1315H10.1314H10.1314H10.1314H10.1314H10.1313H10.1313H10.1313H10.1313H10.1312H10.1312H10.1312H10.1312H10.1311H10.1311H10.1311H10.1311H10.131H10.131H10.131H10.131H10.1309H10.1309H10.1309H10.1309H10.1308H10.1308H10.1308H10.1307H10.1307H10.1307H10.1307H10.1306H10.1306H10.1306H10.1306H10.1305H10.1305H10.1305H10.1304H10.1304H10.1304H10.1304H10.1303H10.1303H10.1303H10.1303H10.1302H10.1302H10.1302H10.1301H10.1301H10.1301H10.1301H10.13H10.13H10.13H10.1299H10.1299H10.1299H10.1299H10.1298H10.1298H10.1298H10.1297H10.1297H10.1297H10.1297H10.1296H10.1296H10.1296H10.1295H10.1295H10.1295H10.1294H10.1294H10.1294H10.1294H10.1293H10.1293H10.1293H10.1292H10.1292H10.1292H10.1291H10.1291H10.1291H10.129H10.129H10.129H10.129H10.1289H10.1289H10.1289H10.1288H10.1288H10.1288H10.1287H10.1287H10.1287H10.1286H10.1286H10.1286H10.1285H10.1285H10.1285H10.1284H10.1284H10.1284H10.1283H10.1283H10.1283H10.1282H10.1282H10.1282H10.1281H10.1281H10.1281H10.128H10.128H10.128H10.1279H10.1279H10.1279H10.1278H10.1278H10.1277H10.1277H10.1277H10.1276H10.1276H10.1276H10.1275H10.1275H10.1275H10.1274H10.1274H10.1273H10.1273H10.1273H10.1272H10.1272H10.1272H10.1271H10.1271H10.127H10.127H10.127H10.1269H10.1269H10.1268H10.1268H10.1268H10.1267H10.1267H10.1266H10.1266H10.1266H10.1265H10.1265H10.1264H10.1264H10.1264H10.1263H10.1263H10.1262H10.1262H10.1262H10.1261H10.1261H10.126H10.126H10.1259H10.1259H10.1259H10.1258H10.1258H10.1257H10.1257H10.1256H10.1256H10.1256H10.1255H10.1255H10.1254H10.1254H10.1253H10.1253H10.1252H10.1252H10.1252H10.1251H10.1251H10.125H10.125H10.1249H10.1249H10.1248H10.1248H10.1247H10.1247H10.1246H10.1246H10.1245H10.1245H10.1244H10.1244H10.1243H10.1243H10.1242H10.1241H10.124H10.1239H10.1238H10.1237H10.1236H10.1235H10.1234H10.1233H10.1232H10.1231H10.123H10.1229H10.1228H10.1227H10.1226H10.1225H10.1224H10.1223H10.1222H10.1222H10.1221H10.122H10.1219H10.1218H10.1217H10.1216H10.1215H10.1214H10.1213H10.1212H10.1211H10.121H10.121H10.1209H10.1208H10.1207H10.1206H10.1205H10.1204H10.1203H10.1202H10.1201H10.12H10.12H10.1199H10.1198H10.1197H10.1196H10.1195H10.1194H10.1193H10.1192H10.1192H10.1191H10.119H10.1189H10.1188H10.1187H10.1186H10.1185H10.1185H10.1184H10.1183H10.1182H10.1181H10.118H10.1179H10.1179H10.1178H10.1177H10.1176H10.1175H10.1174H10.1173H10.1173H10.1172H10.1171H10.117H10.1169H10.1168H10.1167H10.1167H10.1166H10.1165H10.1164H10.1163H10.1162H10.1162H10.1161H10.116H10.1159H10.1158H10.1157H10.1157H10.1156H10.1155C10.0368 9.06665 9.95637 9.06768 9.88273 9.07431C7.98186 8.99191 6.54102 7.48303 6.54102 5.62533Z" fill="currentColor" stroke="currentColor"/>
<path d="M6.04486 16.743L6.0435 16.742C5.09454 16.1094 4.63281 15.2998 4.63281 14.4831C4.63281 13.666 5.09492 12.8483 6.05153 12.2076C7.12392 11.4982 8.55546 11.1289 10.0099 11.1289C11.465 11.1289 12.892 11.4985 13.9555 12.2074C14.9008 12.8377 15.3587 13.647 15.3661 14.4685C15.3654 15.2933 14.9031 16.1026 13.9537 16.7432C12.8862 17.4598 11.4556 17.8331 9.99948 17.8331C8.5432 17.8331 7.11242 17.4598 6.04486 16.743ZM11.1245 16.1497V15.6081H11.6661C12.284 15.6081 12.7911 15.1009 12.7911 14.4831C12.7911 13.8653 12.284 13.3581 11.6661 13.3581H11.1245V12.8164C11.1245 12.1986 10.6173 11.6914 9.99948 11.6914C9.38167 11.6914 8.87448 12.1986 8.87448 12.8164V13.3581H8.33281C7.715 13.3581 7.20781 13.8653 7.20781 14.4831C7.20781 15.1009 7.715 15.6081 8.33281 15.6081H8.87448V16.1497C8.87448 16.7675 9.38167 17.2747 9.99948 17.2747C10.6173 17.2747 11.1245 16.7675 11.1245 16.1497Z" fill="currentColor" stroke="currentColor"/>
</svg>
