<svg width="16" height="17" viewBox="0 0 16 17" fill="none" xmlns="http://www.w3.org/2000/svg">
<path d="M12.8668 6.6531L12.8677 6.65404C13.9184 7.6991 13.917 9.39364 12.8687 10.4308L12.8668 10.4327L9.94104 13.3584C9.94081 13.3586 9.94059 13.3588 9.94037 13.359C8.88817 14.4049 7.19119 14.4033 6.1472 13.3593L3.1272 10.3393C2.59478 9.80691 2.31285 9.07094 2.34644 8.31601C2.34645 8.31575 2.34646 8.3155 2.34648 8.31524L2.50635 4.98464C2.50635 4.98446 2.50636 4.98429 2.50637 4.98412C2.56039 3.91445 3.41442 3.06075 4.48945 3.01237L4.48945 3.01237L4.49095 3.0123L7.82428 2.85231L7.82639 2.8522C8.57634 2.81302 9.31225 3.09859 9.84676 3.6331L12.8668 6.6531ZM3.91364 6.83288C3.91364 8.16902 4.9975 9.25288 6.33364 9.25288C7.66978 9.25288 8.75364 8.16902 8.75364 6.83288C8.75364 5.49674 7.66978 4.41288 6.33364 4.41288C4.9975 4.41288 3.91364 5.49674 3.91364 6.83288Z" fill="currentColor" stroke="currentColor"/>
</svg>
