<svg width="20" height="20" viewBox="0 0 20 20" fill="none" xmlns="http://www.w3.org/2000/svg">
<path d="M14.1554 13.4284L14.1565 13.4295C14.9434 14.1398 15.2007 15.228 14.8172 16.2188C14.4337 17.2014 13.5106 17.8333 12.4499 17.8333H7.54157C6.48842 17.8333 5.5575 17.2006 5.17427 16.2189C4.79077 15.2281 5.04803 14.1398 5.83493 13.4295L5.83493 13.4295L5.8361 13.4284L9.05976 10.5H10.9317L14.1554 13.4284ZM8.48323 15.6167H11.5166C12.101 15.6167 12.5832 15.1345 12.5832 14.55C12.5832 13.9703 12.1141 13.4833 11.5166 13.4833H8.48323C7.89876 13.4833 7.41657 13.9655 7.41657 14.55C7.41657 15.1297 7.88565 15.6167 8.48323 15.6167Z" fill="currentColor" stroke="currentColor"/>
<path d="M5.84475 6.57153L5.84357 6.57047C5.05705 5.86051 4.7988 4.77169 5.17514 3.77968C5.5587 2.79871 6.48924 2.16663 7.54188 2.16663H12.4585C13.5112 2.16663 14.4417 2.79872 14.8253 3.77971C15.2018 4.77203 14.9433 5.86178 14.1636 6.57188C14.1636 6.57191 14.1636 6.57193 14.1635 6.57195L10.9404 9.49996H9.06841L5.84475 6.57153ZM8.48355 6.52496H11.5169C12.1014 6.52496 12.5835 6.04277 12.5835 5.45829C12.5835 4.87861 12.1145 4.39163 11.5169 4.39163H8.48355C7.89907 4.39163 7.41688 4.87382 7.41688 5.45829C7.41688 6.03797 7.88597 6.52496 8.48355 6.52496Z" fill="currentColor" stroke="currentColor"/>
</svg>
