<svg width="20" height="20" viewBox="0 0 20 20" fill="none" xmlns="http://www.w3.org/2000/svg">
<path d="M2.5 18.3334H17.5" stroke="currentColor" stroke-width="1.5" stroke-linecap="round" stroke-linejoin="round"/>
<path d="M4.66665 6.98328H3.33333C2.875 6.98328 2.5 7.35828 2.5 7.81661V14.9999C2.5 15.4583 2.875 15.8333 3.33333 15.8333H4.66665C5.12498 15.8333 5.49998 15.4583 5.49998 14.9999V7.81661C5.49998 7.35828 5.12498 6.98328 4.66665 6.98328Z" stroke="currentColor" stroke-width="1.5" stroke-linecap="round" stroke-linejoin="round"/>
<path d="M10.6666 4.32495H9.33333C8.875 4.32495 8.5 4.69995 8.5 5.15828V14.9999C8.5 15.4583 8.875 15.8333 9.33333 15.8333H10.6666C11.125 15.8333 11.5 15.4583 11.5 14.9999V5.15828C11.5 4.69995 11.125 4.32495 10.6666 4.32495Z" stroke="currentColor" stroke-width="1.5" stroke-linecap="round" stroke-linejoin="round"/>
<path d="M16.6666 1.66663H15.3333C14.875 1.66663 14.5 2.04163 14.5 2.49996V15C14.5 15.4583 14.875 15.8333 15.3333 15.8333H16.6666C17.125 15.8333 17.5 15.4583 17.5 15V2.49996C17.5 2.04163 17.125 1.66663 16.6666 1.66663Z" stroke="currentColor" stroke-width="1.5" stroke-linecap="round" stroke-linejoin="round"/>
</svg>
