<svg width="32" height="33" viewBox="0 0 32 33" fill="none" xmlns="http://www.w3.org/2000/svg">
<path d="M16.0013 29.8337C23.3651 29.8337 29.3346 23.8641 29.3346 16.5003C29.3346 9.13653 23.3651 3.16699 16.0013 3.16699C8.63751 3.16699 2.66797 9.13653 2.66797 16.5003C2.66797 23.8641 8.63751 29.8337 16.0013 29.8337Z" stroke="currentColor" stroke-width="2" stroke-linecap="round" stroke-linejoin="round"/>
<path d="M10.6797 19.8469C10.9197 20.2469 11.213 20.6203 11.5463 20.9536C13.9997 23.4069 17.9863 23.4069 20.453 20.9536C21.453 19.9536 22.0263 18.6869 22.213 17.3936" stroke="currentColor" stroke-width="2" stroke-linecap="round" stroke-linejoin="round"/>
<path d="M9.78516 15.6071C9.97182 14.3004 10.5452 13.047 11.5452 12.047C13.9985 9.5937 17.9852 9.5937 20.4518 12.047C20.7985 12.3937 21.0785 12.7671 21.3185 13.1537" stroke="currentColor" stroke-width="2" stroke-linecap="round" stroke-linejoin="round"/>
<path d="M10.4258 23.4067V19.8467H13.9858" stroke="currentColor" stroke-width="2" stroke-linecap="round" stroke-linejoin="round"/>
<path d="M21.5717 9.59375V13.1537H18.0117" stroke="currentColor" stroke-width="2" stroke-linecap="round" stroke-linejoin="round"/>
</svg>
