<svg width="32" height="32" viewBox="0 0 32 32" fill="none" xmlns="http://www.w3.org/2000/svg">
<path d="M28.1214 9.30702C26.988 8.05369 25.0947 7.42702 22.348 7.42702H22.028V7.37369C22.028 5.13369 22.028 2.36035 17.0147 2.36035H14.988C9.97468 2.36035 9.97468 5.14702 9.97468 7.37369V7.44035H9.65468C6.89468 7.44035 5.01469 8.06702 3.88135 9.32035C2.56135 10.787 2.60135 12.7604 2.73469 14.107L2.74802 14.2004L2.88135 15.6004C2.89469 15.6137 2.92135 15.6404 2.94802 15.6537C3.38802 15.947 3.84135 16.2404 4.32135 16.507C4.50802 16.627 4.70802 16.7337 4.90802 16.8404C7.18802 18.0937 9.69468 18.9337 12.2414 19.347C12.3614 20.6004 12.908 22.067 15.828 22.067C18.748 22.067 19.3214 20.6137 19.4147 19.3204C22.1347 18.8804 24.7614 17.9337 27.1347 16.547C27.2147 16.507 27.268 16.467 27.3347 16.427C27.948 16.0804 28.5214 15.707 29.0814 15.2937C29.108 15.2804 29.1347 15.2537 29.148 15.227L29.2014 14.747L29.268 14.1204C29.2814 14.0404 29.2814 13.9737 29.2947 13.8804C29.4014 12.5337 29.3747 10.6937 28.1214 9.30702ZM17.4547 18.4404C17.4547 19.8537 17.4547 20.067 15.8147 20.067C14.1747 20.067 14.1747 19.8137 14.1747 18.4537V16.7737H17.4547V18.4404ZM11.8814 7.42702V7.37369C11.8814 5.10702 11.8814 4.26702 14.988 4.26702H17.0147C20.1214 4.26702 20.1214 5.12035 20.1214 7.37369V7.44035H11.8814V7.42702Z" fill="currentColor"/>
<path opacity="0.4" d="M27.3322 16.4002C27.2656 16.4402 27.1989 16.4802 27.1322 16.5202C24.7589 17.9069 22.1322 18.8402 19.4122 19.2935C19.3056 20.5735 18.7456 22.0402 15.8256 22.0402C12.9056 22.0402 12.3456 20.5869 12.2389 19.3202C9.69224 18.9202 7.18557 18.0802 4.90557 16.8135C4.70557 16.7069 4.50557 16.6002 4.31891 16.4802C3.83891 16.2135 3.38557 15.9202 2.94557 15.6269C2.91891 15.6135 2.89224 15.5869 2.87891 15.5735L3.69224 24.2535C3.97224 26.9069 5.06557 29.6402 10.9322 29.6402H21.0922C26.9589 29.6402 28.0522 26.9069 28.3322 24.2402L29.1722 15.2002C29.1589 15.2269 29.1322 15.2535 29.1056 15.2669C28.5322 15.6802 27.9456 16.0669 27.3322 16.4002Z" fill="currentColor"/>
</svg>
