<svg width="32" height="32" viewBox="0 0 32 32" fill="none" xmlns="http://www.w3.org/2000/svg">
<path opacity="0.4" d="M15.9603 29.3337C23.3241 29.3337 29.2936 23.3641 29.2936 16.0003C29.2936 8.63653 23.3241 2.66699 15.9603 2.66699C8.59649 2.66699 2.62695 8.63653 2.62695 16.0003C2.62695 23.3641 8.59649 29.3337 15.9603 29.3337Z" fill="currentColor"/>
<path d="M14.2927 20.0397V11.9597C14.2927 11.3197 14.026 11.0664 13.346 11.0664H11.6127C10.9327 11.0664 10.666 11.3197 10.666 11.9597V20.0397C10.666 20.6797 10.9327 20.9331 11.6127 20.9331H13.3327C14.026 20.9331 14.2927 20.6797 14.2927 20.0397Z" fill="currentColor"/>
<path d="M21.334 20.0397V11.9597C21.334 11.3197 21.0674 11.0664 20.3874 11.0664H18.6674C17.9874 11.0664 17.7207 11.3197 17.7207 11.9597V20.0397C17.7207 20.6797 17.9874 20.9331 18.6674 20.9331H20.3874C21.0674 20.9331 21.334 20.6797 21.334 20.0397Z" fill="currentColor"/>
</svg>
