<svg width="32" height="32" viewBox="0 0 32 32" fill="none" xmlns="http://www.w3.org/2000/svg">
<path opacity="0.4" d="M15.9583 29.3337C23.3221 29.3337 29.2917 23.3641 29.2917 16.0003C29.2917 8.63653 23.3221 2.66699 15.9583 2.66699C8.59454 2.66699 2.625 8.63653 2.625 16.0003C2.625 23.3641 8.59454 29.3337 15.9583 29.3337Z" fill="currentColor"/>
<path d="M19.9605 13.6398L16.0938 11.4132C15.1338 10.8532 13.9738 10.8532 13.0138 11.4132C12.0538 11.9732 11.4805 12.9598 11.4805 14.0798V18.5465C11.4805 19.6532 12.0538 20.6532 13.0138 21.2132C13.4938 21.4932 14.0271 21.6265 14.5471 21.6265C15.0805 21.6265 15.6005 21.4932 16.0805 21.2132L19.9471 18.9865C20.9071 18.4265 21.4805 17.4398 21.4805 16.3198C21.5071 15.1998 20.9338 14.1998 19.9605 13.6398Z" fill="currentColor"/>
</svg>
