<svg width="24" height="24" viewBox="0 0 24 24" fill="none" xmlns="http://www.w3.org/2000/svg">
<path opacity="0.4" d="M16.19 2H7.82001C4.17001 2 2 4.17 2 7.81V16.18C2 19.82 4.17 21.99 7.81 21.99H16.18C19.82 21.99 21.99 19.82 21.99 16.18V7.81C22 4.17 19.83 2 16.19 2Z" fill="currentColor"/>
<path d="M12 6.51019C11.86 6.51019 11.71 6.53019 11.57 6.54019L11.85 6.22019C12.12 5.91019 12.09 5.43019 11.78 5.16019C11.47 4.89019 10.99 4.92019 10.72 5.23019L9.04999 7.14019C9.03999 7.15019 9.03998 7.16019 9.02998 7.17019C9.01998 7.18019 9.00998 7.18019 9.00998 7.19019C8.98998 7.22019 8.97999 7.26019 8.95999 7.30019C8.93999 7.35019 8.90998 7.39019 8.89998 7.44019C8.88998 7.49019 8.88999 7.53019 8.87999 7.58019C8.87999 7.63019 8.86998 7.67019 8.86998 7.72019C8.86998 7.77019 8.88999 7.81019 8.90999 7.86019C8.91999 7.91019 8.93999 7.95019 8.95999 7.99019C8.97999 8.03019 9.01999 8.07019 9.04999 8.11019C9.07999 8.14019 9.08998 8.18019 9.11998 8.20019C9.12998 8.21019 9.13998 8.21019 9.14998 8.22019C9.15998 8.23019 9.15998 8.24019 9.16998 8.24019L11.11 9.66019C11.24 9.76019 11.4 9.80019 11.55 9.80019C11.78 9.80019 12.01 9.69019 12.16 9.49019C12.4 9.16019 12.33 8.69019 12 8.44019L11.44 8.03019C11.62 8.01019 11.81 7.99019 12 7.99019C14.34 7.99019 16.25 9.90019 16.25 12.2402C16.25 14.5802 14.34 16.4902 12 16.4902C9.65998 16.4902 7.74998 14.5802 7.74998 12.2402C7.74998 11.3902 7.99999 10.5802 8.45999 9.88019C8.68999 9.54019 8.59998 9.07019 8.24998 8.84019C7.90998 8.61019 7.43999 8.70019 7.20999 9.05019C6.57999 10.0002 6.23999 11.1002 6.23999 12.2402C6.23999 15.4102 8.81999 17.9902 11.99 17.9902C15.16 17.9902 17.74 15.4102 17.74 12.2402C17.74 9.07019 15.17 6.51019 12 6.51019Z" fill="currentColor"/>
</svg>
