<svg width="32" height="32" viewBox="0 0 32 32" fill="none" xmlns="http://www.w3.org/2000/svg">
<path opacity="0.4" d="M15.9993 29.3337C23.3631 29.3337 29.3327 23.3641 29.3327 16.0003C29.3327 8.63653 23.3631 2.66699 15.9993 2.66699C8.63555 2.66699 2.66602 8.63653 2.66602 16.0003C2.66602 23.3641 8.63555 29.3337 15.9993 29.3337Z" fill="currentColor"/>
<path d="M14.1059 20.7735C13.8393 20.7735 13.5859 20.6668 13.3993 20.4801L9.62594 16.7068C9.23927 16.3201 9.23927 15.6801 9.62594 15.2935C10.0126 14.9068 10.6526 14.9068 11.0393 15.2935L14.1059 18.3601L20.9593 11.5068C21.3459 11.1201 21.9859 11.1201 22.3726 11.5068C22.7593 11.8935 22.7593 12.5335 22.3726 12.9201L14.8126 20.4801C14.6259 20.6668 14.3726 20.7735 14.1059 20.7735Z" fill="currentColor"/>
</svg>
